# xmcd
#
# Track frame offsets:
#	150
#	19087
#	36217
#	58237
#
# Disc length: 1114 seconds
#
# Revision: 4
# Processed by: cddbd v1.5.1PL2 Copyright (c) Steve Scherf et al.
# Submitted via: EasyCDDAExtractor 9.0.0.1
#
DISCID=2f045804
DTITLE=Guy - Dancin' [CD Single_2)
DYEAR=1999
DGENRE=R&B
TTITLE0=Dancin' (Radio Edit)
TTITLE1=Dancin' (Grant's Radio Edit)
TTITLE2=Dancin' (Linslee Mix)
TTITLE3=Dancin' (Nelson's Old School Flava Dub)
EXTD=
EXTT0=
EXTT1=
EXTT2=
EXTT3=
PLAYORDER=
